<svg width="24" height="22" viewBox="0 0 24 22" fill="none" xmlns="http://www.w3.org/2000/svg">
<path d="M8.75748 21C9.29303 21 9.72717 20.5736 9.72717 20.0476C9.72717 19.5216 9.29303 19.0952 8.75748 19.0952C8.22193 19.0952 7.78778 19.5216 7.78778 20.0476C7.78778 20.5736 8.22193 21 8.75748 21Z" fill="#BFC2C8" stroke="black" stroke-width="1.5" stroke-linecap="round" stroke-linejoin="round"/>
<path d="M19.4241 21C19.9597 21 20.3938 20.5736 20.3938 20.0476C20.3938 19.5216 19.9597 19.0952 19.4241 19.0952C18.8886 19.0952 18.4544 19.5216 18.4544 20.0476C18.4544 20.5736 18.8886 21 19.4241 21Z" fill="#BFC2C8" stroke="black" stroke-width="1.5" stroke-linecap="round" stroke-linejoin="round"/>
<path d="M1 1H4.87879L7.47758 13.7524C7.56625 14.1909 7.80912 14.5847 8.16368 14.8651C8.51824 15.1454 8.96189 15.2943 9.41697 15.2857H18.8424C19.2975 15.2943 19.7412 15.1454 20.0957 14.8651C20.4503 14.5847 20.6931 14.1909 20.7818 13.7524L22.3333 5.76191H5.84848" stroke="black" stroke-width="2" stroke-linecap="round" stroke-linejoin="round"/>
</svg>
