<svg width="23" height="22" viewBox="0 0 23 22" fill="none" xmlns="http://www.w3.org/2000/svg">
<path d="M20.2603 2.76815C19.7504 2.20759 19.1449 1.76292 18.4785 1.45954C17.8122 1.15615 17.0979 1 16.3766 1C15.6552 1 14.941 1.15615 14.2746 1.45954C13.6082 1.76292 13.0028 2.20759 12.4928 2.76815L11.4345 3.93095L10.3762 2.76815C9.34618 1.6364 7.94915 1.00059 6.49246 1.00059C5.03577 1.00059 3.63874 1.6364 2.6087 2.76815C1.57867 3.89989 1 5.43487 1 7.03541C1 8.63594 1.57867 10.1709 2.6087 11.3027L3.667 12.4655L11.4345 21L19.202 12.4655L20.2603 11.3027C20.7705 10.7424 21.1752 10.0771 21.4513 9.34495C21.7274 8.61276 21.8696 7.82796 21.8696 7.03541C21.8696 6.24285 21.7274 5.45806 21.4513 4.72587C21.1752 3.99368 20.7705 3.32844 20.2603 2.76815Z" stroke="black" stroke-width="2" stroke-linecap="round" stroke-linejoin="round"/>
</svg>
