<svg width="20" height="19" viewBox="0 0 20 19" fill="none" xmlns="http://www.w3.org/2000/svg">
<path d="M9.52229 0.545908C9.66748 0.0760693 10.3325 0.0760676 10.4777 0.545906L12.2518 6.28694C12.3165 6.49644 12.5102 6.63932 12.7295 6.63932H18.5219C19.0001 6.63932 19.2054 7.24631 18.8254 7.53665L14.0968 11.149C13.9303 11.2762 13.8608 11.4937 13.9226 11.6939L15.7185 17.5054C15.8622 17.9705 15.3241 18.3459 14.9372 18.0504L10.3035 14.5105C10.1243 14.3736 9.87567 14.3736 9.69647 14.5105L5.06276 18.0504C4.67591 18.3459 4.13779 17.9705 4.28151 17.5054L6.07737 11.6939C6.13923 11.4937 6.0697 11.2762 5.90319 11.149L1.17462 7.53665C0.79456 7.24631 0.999881 6.63932 1.47815 6.63932H7.2705C7.48978 6.63932 7.68347 6.49645 7.74821 6.28694L9.52229 0.545908Z" fill="black"/>
</svg>
